# xmcd CD database file
#
# Track frame offsets:
#	182
#	20297
#	43085
#	76882
#	95380
#	119965
#	135270
#	154585
#	178645
#	196370
#	221220
#	250525
#
# Disc length: 3428 seconds
#
# Revision: 1
# Processed by: cddbd v1.4PL0 Copyright (c) Steve Scherf et al.
# Submitted via: CDex 1.50beta10
#
DISCID=9c0d620c
DTITLE=Bill Sims - Bill Sims
DYEAR=1999
DGENRE=Blues
TTITLE0=Time Out
TTITLE1=I Want To See You Again
TTITLE2=Smoky City
TTITLE3=Dark Moon Risin'
TTITLE4=As The Years Go Passin' By
TTITLE5=When Do I Get To Be Called A Man
TTITLE6=Just Like You
TTITLE7=Black Mare
TTITLE8=Blues For Breakfast
TTITLE9=Mr. Airplane Man
TTITLE10=Man Eater
TTITLE11=Nobody's Fault But Mine
EXTD=YEAR: 1999
EXTT0=
EXTT1=
EXTT2=
EXTT3=
EXTT4=
EXTT5=
EXTT6=
EXTT7=
EXTT8=
EXTT9=
EXTT10=
EXTT11=
PLAYORDER=
